# xmcd
#
# Track frame offsets:
#	150
#	19642
#	48320
#	70240
#	85455
#	104120
#	116355
#	133530
#	154072
#	165465
#	179635
#	199090
#	215492
#	231190
#	243852
#
# Disc length: 3492 seconds
#
# Revision: 0
# Processed by: cddbd v1.5.1PL0 Copyright (c) Steve Scherf et al.
# Submitted via: dBpowerAMP V4.0
#
DISCID=ce0da20f
DTITLE=Muddy Waters - The Universal Master Collection
DYEAR=1900
DGENRE=Blues
TTITLE0=I Just Want To Make Love To You
TTITLE1=Long Distance Call (Live)
TTITLE2=(I'm Your) Hoochie Coochie Man
TTITLE3=Honey Bee
TTITLE4=I'm Ready
TTITLE5=Trouble No More
TTITLE6=Mannish Boy
TTITLE7=Rock Me
TTITLE8=Sugar Sweet
TTITLE9=Forty Days and Fourty Nights
TTITLE10=Got My Mojo Working (Live)
TTITLE11=Tom Cat
TTITLE12=Country Boy
TTITLE13=Short Dress Woman
TTITLE14=Hy Home Is In The Delta
EXTD=
EXTT0=
EXTT1=
EXTT2=
EXTT3=
EXTT4=
EXTT5=
EXTT6=
EXTT7=
EXTT8=
EXTT9=
EXTT10=
EXTT11=
EXTT12=
EXTT13=
EXTT14=
PLAYORDER=
